<svg xmlns="http://www.w3.org/2000/svg" viewBox="0 0 512 512" fill="#ffffff">
    <path d="M499.8 213.5c-11.8-6.8-24.9-10.5-38.5-10.5h-42.8l-5.7-34.3c-1.4-8.4-8.6-14.7-17.1-14.7h-68.8c-9.6 0-17.3 7.7-17.3 17.3s7.7 17.3 17.3 17.3h54.7l5.7 34.3c1.4 8.4 8.6 14.7 17.1 14.7h56.9c8.1 0 15.8 2.2 22.5 6.1 6.7 3.9 12.3 9.5 16.2 16.2 3.9 6.7 6.1 14.4 6.1 22.5s-2.2 15.8-6.1 22.5c-3.9 6.7-9.5 12.3-16.2 16.2-6.7 3.9-14.4 6.1-22.5 6.1h-56.9c-8.5 0-15.7 6.3-17.1 14.7l-5.7 34.3h-54.7c-9.6 0-17.3 7.7-17.3 17.3s7.7 17.3 17.3 17.3h68.8c8.5 0 15.7-6.3 17.1-14.7l5.7-34.3h42.8c13.6 0 26.7-3.7 38.5-10.5 11.8-6.8 21.6-16.6 28.4-28.4 6.8-11.8 10.5-24.9 10.5-38.5s-3.7-26.7-10.5-38.5c-6.8-11.8-16.6-21.6-28.4-28.4z"/>
    <path d="M382.4 290.7c-9.6 0-17.3 7.7-17.3 17.3 0 28.7-23.3 52-52 52s-52-23.3-52-52 23.3-52 52-52c9.6 0 17.3-7.7 17.3-17.3s-7.7-17.3-17.3-17.3c-47.8 0-86.7 38.9-86.7 86.7s38.9 86.7 86.7 86.7 86.7-38.9 86.7-86.7c-.1-9.7-7.8-17.4-17.4-17.4z"/>
    <path d="M225.1 290.7h-86.7c-9.6 0-17.3 7.7-17.3 17.3s7.7 17.3 17.3 17.3h86.7c9.6 0 17.3-7.7 17.3-17.3s-7.7-17.3-17.3-17.3z"/>
    <path d="M138.4 238.7c28.7 0 52 23.3 52 52s-23.3 52-52 52-52-23.3-52-52 23.3-52 52-52zm0-34.7c-47.8 0-86.7 38.9-86.7 86.7s38.9 86.7 86.7 86.7 86.7-38.9 86.7-86.7-38.9-86.7-86.7-86.7z"/>
</svg>